<svg width="14" height="27" viewBox="0 0 14 27" fill="none" xmlns="http://www.w3.org/2000/svg">
<path d="M10.1029 0C8.25068 0 6.73525 1.51543 6.73525 3.36763C6.73525 5.21982 8.25068 6.73525 10.1029 6.73525C11.9551 6.73525 13.4705 5.21982 13.4705 3.36763C13.4705 1.51543 11.9551 0 10.1029 0ZM5.05144 8.41907C2.25631 8.41907 0 10.6754 0 13.4705H3.36763C3.36763 12.5276 4.1085 11.7867 5.05144 11.7867C5.99437 11.7867 6.73525 12.5276 6.73525 13.4705C6.73525 14.4134 3.36763 18.9934 3.36763 21.8896C3.36763 24.7857 5.62394 26.941 8.41907 26.941C11.2142 26.941 13.4705 24.6847 13.4705 21.8896H10.1029C10.1029 22.8325 9.362 23.5734 8.41907 23.5734C7.47613 23.5734 6.73525 22.8325 6.73525 21.8896C6.73525 20.6772 10.1029 15.6931 10.1029 13.4705C10.1029 10.7427 7.84657 8.41907 5.05144 8.41907Z" fill="black"/>
</svg>
