<svg width="27" height="30" viewBox="0 0 27 30" fill="none" xmlns="http://www.w3.org/2000/svg">
<g clip-path="url(#clip0_15_357)">
<path d="M13.506 6.39697C9.67299 6.39697 6.58125 9.40283 6.58125 13.1294C6.58125 16.856 9.67299 19.8618 13.506 19.8618C17.3391 19.8618 20.4308 16.856 20.4308 13.1294C20.4308 9.40283 17.3391 6.39697 13.506 6.39697ZM13.506 17.5063C11.029 17.5063 9.00402 15.5435 9.00402 13.1294C9.00402 10.7153 11.023 8.75244 13.506 8.75244C15.9891 8.75244 18.008 10.7153 18.008 13.1294C18.008 15.5435 15.983 17.5063 13.506 17.5063ZM22.3292 6.12158C22.3292 6.99463 21.606 7.6919 20.7141 7.6919C19.8161 7.6919 19.0989 6.98877 19.0989 6.12158C19.0989 5.25439 19.8221 4.55127 20.7141 4.55127C21.606 4.55127 22.3292 5.25439 22.3292 6.12158ZM26.9156 7.71533C26.8132 5.61182 26.319 3.74854 24.7339 2.21338C23.1549 0.678222 21.2384 0.197754 19.0748 0.0922851C16.8449 -0.0307617 10.1612 -0.0307617 7.93125 0.0922851C5.77366 0.191895 3.85715 0.672363 2.2721 2.20752C0.687057 3.74268 0.198887 5.60596 0.0904053 7.70947C-0.0361572 9.87744 -0.0361572 16.3755 0.0904053 18.5435C0.192861 20.647 0.687057 22.5103 2.2721 24.0454C3.85715 25.5806 5.76764 26.061 7.93125 26.1665C10.1612 26.2895 16.8449 26.2895 19.0748 26.1665C21.2384 26.0669 23.1549 25.5864 24.7339 24.0454C26.3129 22.5103 26.8071 20.647 26.9156 18.5435C27.0422 16.3755 27.0422 9.8833 26.9156 7.71533ZM24.0348 20.8696C23.5647 22.0181 22.6547 22.9028 21.4674 23.3657C19.6895 24.0513 15.4708 23.8931 13.506 23.8931C11.5413 23.8931 7.31652 24.0454 5.54465 23.3657C4.3634 22.9087 3.45335 22.0239 2.97724 20.8696C2.2721 19.1411 2.43482 15.0396 2.43482 13.1294C2.43482 11.2192 2.27813 7.11182 2.97724 5.38916C3.44732 4.24072 4.35737 3.35596 5.54465 2.89307C7.32255 2.20752 11.5413 2.36572 13.506 2.36572C15.4708 2.36572 19.6955 2.21338 21.4674 2.89307C22.6487 3.3501 23.5587 4.23486 24.0348 5.38916C24.74 7.11768 24.5772 11.2192 24.5772 13.1294C24.5772 15.0396 24.74 19.147 24.0348 20.8696Z" fill="black"/>
</g>
<defs>
<clipPath id="clip0_15_357">
<rect width="27" height="30" fill="white"/>
</clipPath>
</defs>
</svg>
